<?xml version="1.0" encoding="utf-8"?>
<!-- Generator: Adobe Illustrator 19.0.0, SVG Export Plug-In . SVG Version: 6.00 Build 0)  -->
<svg version="1.1" id="Layer_1" xmlns="http://www.w3.org/2000/svg" xmlns:xlink="http://www.w3.org/1999/xlink" x="0px" y="0px"
	 viewBox="126 -126 284 284" style="enable-background:new 126 -126 284 284;" xml:space="preserve">
<style type="text/css">
	.st0{fill:#F3F2F1;}
	.st1{clip-path:url(#SVGID_2_);fill:#F3C5AD;}
	.st2{clip-path:url(#SVGID_4_);}
	.st3{clip-path:url(#SVGID_6_);fill:#1A1718;fill-opacity:0.3;}
	.st4{clip-path:url(#SVGID_8_);fill:#F3C5AD;}
	.st5{clip-path:url(#SVGID_10_);fill:#1A1718;fill-opacity:0.3;}
	.st6{clip-path:url(#SVGID_12_);fill:#1F73B2;}
	.st7{clip-path:url(#SVGID_14_);fill:#FFFFFF;}
	.st8{clip-path:url(#SVGID_16_);fill:#D5A691;}
	.st9{clip-path:url(#SVGID_18_);fill:#F3C5AD;}
	.st10{clip-path:url(#SVGID_20_);fill:#F3C5AD;}
	.st11{clip-path:url(#SVGID_22_);fill:#F3C5AD;}
	.st12{clip-path:url(#SVGID_24_);fill:#190E02;}
	.st13{clip-path:url(#SVGID_26_);fill:#190E02;}
	.st14{clip-path:url(#SVGID_28_);fill:#190E02;}
	.st15{clip-path:url(#SVGID_30_);fill:#190E02;}
	.st16{clip-path:url(#SVGID_32_);fill:#190E02;}
	.st17{clip-path:url(#SVGID_34_);fill:#190E02;}
	.st18{clip-path:url(#SVGID_36_);fill:#2C2723;}
	.st19{clip-path:url(#SVGID_38_);fill:#1A1718;fill-opacity:0.3;}
	.st20{clip-path:url(#SVGID_40_);fill:#2C2723;}
	.st21{clip-path:url(#SVGID_42_);fill:#2C2723;}
	.st22{clip-path:url(#SVGID_44_);fill:#2C2723;}
	.st23{clip-path:url(#SVGID_46_);fill:#2C2723;}
	.st24{clip-path:url(#SVGID_48_);fill:#2C2723;}
	.st25{clip-path:url(#SVGID_50_);fill:#2C2723;}
	.st26{clip-path:url(#SVGID_52_);fill:#2C2723;}
	.st27{clip-path:url(#SVGID_54_);fill:#2C2723;}
	.st28{clip-path:url(#SVGID_56_);fill:#2C2723;}
	.st29{clip-path:url(#SVGID_58_);fill:#2C2723;}
	.st30{clip-path:url(#SVGID_60_);fill:#2C2723;}
	.st31{clip-path:url(#SVGID_62_);fill:#2C2723;}
	.st32{clip-path:url(#SVGID_64_);fill:#2C2723;}
	.st33{clip-path:url(#SVGID_66_);fill:#2C2723;}
	.st34{clip-path:url(#SVGID_68_);fill:#2C2723;}
	.st35{clip-path:url(#SVGID_70_);fill:#2C2723;}
	.st36{clip-path:url(#SVGID_72_);fill:#2C2723;}
	.st37{clip-path:url(#SVGID_74_);fill:#2C2723;}
	.st38{clip-path:url(#SVGID_76_);fill:#1A1718;fill-opacity:5.000000e-002;}
	.st39{clip-path:url(#SVGID_78_);fill:#FFFFFF;}
	.st40{clip-path:url(#SVGID_80_);fill:#FFFFFF;}
	.st41{clip-path:url(#SVGID_82_);fill:#F1B89C;}
	.st42{clip-path:url(#SVGID_84_);fill:none;stroke:#A48677;stroke-width:3;}
	.st43{clip-path:url(#SVGID_86_);fill:#F3C5AD;}
	.st44{fill:#FFFFFF;}
</style>
<g>
	<circle id="oval2" class="st0" cx="269" cy="16" r="141"/>
	<g>
		<g>
			<defs>
				<circle id="SVGID_1_" cx="269" cy="16" r="141"/>
			</defs>
			<clipPath id="SVGID_2_">
				<use xlink:href="#SVGID_1_"  style="overflow:visible;"/>
			</clipPath>
			<path id="bezier2" class="st1" d="M234.2,109.3c11.1,4.1,13.2,25.6,4.8,48s-24.1,37.2-35.2,33c-11.1-4.1-13.2-25.6-4.8-48
				S223.1,105.2,234.2,109.3z"/>
		</g>
		<g>
			<defs>
				<circle id="SVGID_3_" cx="269" cy="16" r="141"/>
			</defs>
			<clipPath id="SVGID_4_">
				<use xlink:href="#SVGID_3_"  style="overflow:visible;"/>
			</clipPath>
			<path id="bezier" class="st2" d="M213.4,188.6v17.1h113.3v-17.1H213.4z"/>
		</g>
		<g>
			<defs>
				<circle id="SVGID_5_" cx="269" cy="16" r="141"/>
			</defs>
			<clipPath id="SVGID_6_">
				<use xlink:href="#SVGID_5_"  style="overflow:visible;"/>
			</clipPath>
			<path id="bezier3" class="st3" d="M197.5,162.4c-1.7-1.1-1.7-5.5-0.2-10.2c-0.2,0.4-0.3,0.8-0.5,1.2c-1.9,5.1-2,10.2-0.2,11.4
				c1.8,1.2,4.9-1.9,6.8-7c0.1-0.4,0.3-0.8,0.4-1.2C201.9,161,199.2,163.5,197.5,162.4L197.5,162.4z"/>
		</g>
		<g>
			<defs>
				<circle id="SVGID_7_" cx="269" cy="16" r="141"/>
			</defs>
			<clipPath id="SVGID_8_">
				<use xlink:href="#SVGID_7_"  style="overflow:visible;"/>
			</clipPath>
			<path id="bezier4" class="st4" d="M299.8,97.3c-11.1,4.1-13.2,25.6-4.8,48s24.2,37.2,35.2,33c11.1-4.1,13.2-25.6,4.8-48
				S310.9,93.2,299.8,97.3z"/>
		</g>
		<g>
			<defs>
				<circle id="SVGID_9_" cx="269" cy="16" r="141"/>
			</defs>
			<clipPath id="SVGID_10_">
				<use xlink:href="#SVGID_9_"  style="overflow:visible;"/>
			</clipPath>
			<path id="bezier5" class="st5" d="M323.6,171.3c-3.3,0-5.9-5-6.4-11.5c0,0.6-0.1,1.1-0.1,1.7c0,7.3,2.9,13.3,6.4,13.3
				s6.4-5.9,6.4-13.3c0-0.6,0-1.1-0.1-1.7C329.5,166.2,326.8,171.3,323.6,171.3L323.6,171.3z"/>
		</g>
		<g>
			<defs>
				<circle id="SVGID_11_" cx="269" cy="16" r="141"/>
			</defs>
			<clipPath id="SVGID_12_">
				<use xlink:href="#SVGID_11_"  style="overflow:visible;"/>
			</clipPath>
			<path id="bezier6" class="st6" d="M337.4,123.4l-19.6-27.8l-15.8,7.2l-1.4-4.6h-62.8l-1.1,4l-14.4-6.6l-19.6,27.8l25,11.5
				l-15.3,55.8H329l-17-55.6L337.4,123.4z"/>
		</g>
		<g>
			<defs>
				<circle id="SVGID_13_" cx="269" cy="16" r="141"/>
			</defs>
			<clipPath id="SVGID_14_">
				<use xlink:href="#SVGID_13_"  style="overflow:visible;"/>
			</clipPath>
			<path id="bezier7" class="st7" d="M270.1,127.7c10,0,18.2-8.1,18.2-18.2s-8.1-18.2-18.2-18.2c-10,0-18.2,8.1-18.2,18.2
				S260.1,127.7,270.1,127.7z"/>
		</g>
		<g>
			<defs>
				<circle id="SVGID_15_" cx="269" cy="16" r="141"/>
			</defs>
			<clipPath id="SVGID_16_">
				<use xlink:href="#SVGID_15_"  style="overflow:visible;"/>
			</clipPath>
			<path id="bezier8" class="st8" d="M270.1,124.4c8.3,0,14.9-6.2,14.9-13.9s-6.7-13.9-14.9-13.9c-8.2,0-14.9,6.2-14.9,13.9
				S261.8,124.4,270.1,124.4z"/>
		</g>
		<g>
			<defs>
				<circle id="SVGID_17_" cx="269" cy="16" r="141"/>
			</defs>
			<clipPath id="SVGID_18_">
				<use xlink:href="#SVGID_17_"  style="overflow:visible;"/>
			</clipPath>
			<path id="bezier9" class="st9" d="M174.4,43.3c8,0,14.4-6.5,14.4-14.4c0-8-6.5-14.4-14.4-14.4c-7.9,0-14.4,6.4-14.4,14.4
				C160,36.8,166.5,43.3,174.4,43.3z"/>
		</g>
		<g>
			<defs>
				<circle id="SVGID_19_" cx="269" cy="16" r="141"/>
			</defs>
			<clipPath id="SVGID_20_">
				<use xlink:href="#SVGID_19_"  style="overflow:visible;"/>
			</clipPath>
			<path id="bezier10" class="st10" d="M362.6,43.3c8,0,14.4-6.5,14.4-14.4c0-8-6.5-14.4-14.4-14.4c-8,0-14.4,6.5-14.4,14.4
				C348.1,36.8,354.6,43.3,362.6,43.3z"/>
		</g>
		<g>
			<defs>
				<circle id="SVGID_21_" cx="269" cy="16" r="141"/>
			</defs>
			<clipPath id="SVGID_22_">
				<use xlink:href="#SVGID_21_"  style="overflow:visible;"/>
			</clipPath>
			<path id="bezier11" class="st11" d="M269.6,110.6c52.8,0,95.7-33.5,95.7-74.8S322.4-39,269.6-39s-95.7,33.5-95.7,74.8
				S216.7,110.6,269.6,110.6z"/>
		</g>
		<g>
			<defs>
				<circle id="SVGID_23_" cx="269" cy="16" r="141"/>
			</defs>
			<clipPath id="SVGID_24_">
				<use xlink:href="#SVGID_23_"  style="overflow:visible;"/>
			</clipPath>
			<path id="bezier12" class="st12" d="M227.2,40.8c0,9.3-7.4-12-16.6-12c-9.2,0-16.6,21.3-16.6,12s7.4-16.9,16.6-16.9
				C219.8,23.9,227.2,31.5,227.2,40.8L227.2,40.8z"/>
		</g>
		<g>
			<defs>
				<circle id="SVGID_25_" cx="269" cy="16" r="141"/>
			</defs>
			<clipPath id="SVGID_26_">
				<use xlink:href="#SVGID_25_"  style="overflow:visible;"/>
			</clipPath>
			<path id="bezier13" class="st13" d="M349.4,39.8c0,9.3-7.4-12-16.6-12c-9.1,0-16.6,21.3-16.6,12s7.4-16.9,16.6-16.9
				C342,22.9,349.4,30.5,349.4,39.8L349.4,39.8z"/>
		</g>
		<g>
			<defs>
				<circle id="SVGID_27_" cx="269" cy="16" r="141"/>
			</defs>
			<clipPath id="SVGID_28_">
				<use xlink:href="#SVGID_27_"  style="overflow:visible;"/>
			</clipPath>
			<path id="bezier14" class="st14" d="M331.2,10.8c11.8,0,21.5,8.1,22.4,18.5c0-0.5,0.1-0.9,0.1-1.4c0-11-10.1-19.9-22.4-19.9
				c-12.4,0-22.5,8.9-22.5,19.9c0,0.5,0,1,0.1,1.4C309.7,19,319.4,10.8,331.2,10.8L331.2,10.8z"/>
		</g>
		<g>
			<defs>
				<circle id="SVGID_29_" cx="269" cy="16" r="141"/>
			</defs>
			<clipPath id="SVGID_30_">
				<use xlink:href="#SVGID_29_"  style="overflow:visible;"/>
			</clipPath>
			<path id="bezier15" class="st15" d="M211.1,11.8c11.9,0,21.6,8.1,22.4,18.5c0-0.5,0.1-0.9,0.1-1.4c0-11-10.1-19.9-22.5-19.9
				c-12.4,0-22.4,8.9-22.4,19.9c0,0.5,0,1,0.1,1.4C189.5,20,199.2,11.8,211.1,11.8L211.1,11.8z"/>
		</g>
		<g>
			<defs>
				<circle id="SVGID_31_" cx="269" cy="16" r="141"/>
			</defs>
			<clipPath id="SVGID_32_">
				<use xlink:href="#SVGID_31_"  style="overflow:visible;"/>
			</clipPath>
			<path id="bezier16" class="st16" d="M365.1-19.8c0.1-1,0.1-2.1,0.1-3.1c0-13.3-7.6-25.6-20.2-35.4c-1.5-1.2,5.2-15,3.5-16.1
				c-1.4-0.9-11.2,10.8-12.7,9.9c-0.7-0.4-1.5-0.8-2.2-1.2c-2.8-1.5,0.4-17.9-2.7-19.2c-2.7-1.1-11.5,12.8-14.4,11.8
				c-13.9-4.7-29.9-7.4-46.9-7.4c-51.9,0-94.1,24.8-95.7,55.8h191.2L365.1-19.8L365.1-19.8L365.1-19.8z"/>
		</g>
		<g>
			<defs>
				<circle id="SVGID_33_" cx="269" cy="16" r="141"/>
			</defs>
			<clipPath id="SVGID_34_">
				<use xlink:href="#SVGID_33_"  style="overflow:visible;"/>
			</clipPath>
			<path id="bezier17" class="st17" d="M365.2-26.2H174h-0.1v59.8c0,0,62.5-19.7,83.3-26.3c13-4.1,52.1-16.5,52.1-16.5l55.9,42.8
				v-54.9V-26.2L365.2-26.2z"/>
		</g>
		<g>
			<defs>
				<circle id="SVGID_35_" cx="269" cy="16" r="141"/>
			</defs>
			<clipPath id="SVGID_36_">
				<use xlink:href="#SVGID_35_"  style="overflow:visible;"/>
			</clipPath>
			<path id="bezier18" class="st18" d="M269,192.8v13.9h1.1v-13.9H269z"/>
		</g>
		<g>
			<defs>
				<circle id="SVGID_37_" cx="269" cy="16" r="141"/>
			</defs>
			<clipPath id="SVGID_38_">
				<use xlink:href="#SVGID_37_"  style="overflow:visible;"/>
			</clipPath>
			<path id="bezier19" class="st19" d="M270.1,46.5c2.6,0,4.8,1.8,5.2,4.3c0.1-0.4,0.1-0.7,0.1-1.1c0-2.9-2.4-5.3-5.3-5.3
				c-3,0-5.3,2.4-5.3,5.3c0,0.4,0,0.7,0.1,1.1C265.4,48.3,267.5,46.5,270.1,46.5L270.1,46.5z"/>
		</g>
		<g>
			<defs>
				<circle id="SVGID_39_" cx="269" cy="16" r="141"/>
			</defs>
			<clipPath id="SVGID_40_">
				<use xlink:href="#SVGID_39_"  style="overflow:visible;"/>
			</clipPath>
			<path id="bezier30" class="st20" d="M202.2,211c2.7,0,4.8-1.7,4.8-3.7c0-2.1-2.2-3.7-4.8-3.7c-2.7,0-4.8,1.7-4.8,3.7
				S199.6,211,202.2,211z"/>
		</g>
		<g>
			<defs>
				<circle id="SVGID_41_" cx="269" cy="16" r="141"/>
			</defs>
			<clipPath id="SVGID_42_">
				<use xlink:href="#SVGID_41_"  style="overflow:visible;"/>
			</clipPath>
			<path id="bezier31" class="st21" d="M209.7,211c2.7,0,4.8-1.7,4.8-3.7c0-2.1-2.2-3.7-4.8-3.7c-2.7,0-4.8,1.7-4.8,3.7
				S207.1,211,209.7,211z"/>
		</g>
		<g>
			<defs>
				<circle id="SVGID_43_" cx="269" cy="16" r="141"/>
			</defs>
			<clipPath id="SVGID_44_">
				<use xlink:href="#SVGID_43_"  style="overflow:visible;"/>
			</clipPath>
			<path id="bezier32" class="st22" d="M217.2,211c2.7,0,4.8-1.7,4.8-3.7c0-2.1-2.2-3.7-4.8-3.7c-2.7,0-4.8,1.7-4.8,3.7
				S214.5,211,217.2,211z"/>
		</g>
		<g>
			<defs>
				<circle id="SVGID_45_" cx="269" cy="16" r="141"/>
			</defs>
			<clipPath id="SVGID_46_">
				<use xlink:href="#SVGID_45_"  style="overflow:visible;"/>
			</clipPath>
			<path id="bezier33" class="st23" d="M225.7,211c2.7,0,4.8-1.7,4.8-3.7c0-2.1-2.2-3.7-4.8-3.7c-2.7,0-4.8,1.7-4.8,3.7
				S223.1,211,225.7,211z"/>
		</g>
		<g>
			<defs>
				<circle id="SVGID_47_" cx="269" cy="16" r="141"/>
			</defs>
			<clipPath id="SVGID_48_">
				<use xlink:href="#SVGID_47_"  style="overflow:visible;"/>
			</clipPath>
			<path id="bezier34" class="st24" d="M233.2,211c2.7,0,4.8-1.7,4.8-3.7c0-2.1-2.2-3.7-4.8-3.7c-2.7,0-4.8,1.7-4.8,3.7
				S230.6,211,233.2,211z"/>
		</g>
		<g>
			<defs>
				<circle id="SVGID_49_" cx="269" cy="16" r="141"/>
			</defs>
			<clipPath id="SVGID_50_">
				<use xlink:href="#SVGID_49_"  style="overflow:visible;"/>
			</clipPath>
			<path id="bezier35" class="st25" d="M240.7,211c2.7,0,4.8-1.7,4.8-3.7c0-2.1-2.2-3.7-4.8-3.7c-2.7,0-4.8,1.7-4.8,3.7
				S238.1,211,240.7,211z"/>
		</g>
		<g>
			<defs>
				<circle id="SVGID_51_" cx="269" cy="16" r="141"/>
			</defs>
			<clipPath id="SVGID_52_">
				<use xlink:href="#SVGID_51_"  style="overflow:visible;"/>
			</clipPath>
			<path id="bezier36" class="st26" d="M249.3,211c2.7,0,4.8-1.7,4.8-3.7c0-2.1-2.2-3.7-4.8-3.7c-2.7,0-4.8,1.7-4.8,3.7
				C244.4,209.3,246.6,211,249.3,211z"/>
		</g>
		<g>
			<defs>
				<circle id="SVGID_53_" cx="269" cy="16" r="141"/>
			</defs>
			<clipPath id="SVGID_54_">
				<use xlink:href="#SVGID_53_"  style="overflow:visible;"/>
			</clipPath>
			<path id="bezier37" class="st27" d="M256.7,211c2.7,0,4.8-1.7,4.8-3.7c0-2.1-2.2-3.7-4.8-3.7c-2.7,0-4.8,1.7-4.8,3.7
				S254.1,211,256.7,211z"/>
		</g>
		<g>
			<defs>
				<circle id="SVGID_55_" cx="269" cy="16" r="141"/>
			</defs>
			<clipPath id="SVGID_56_">
				<use xlink:href="#SVGID_55_"  style="overflow:visible;"/>
			</clipPath>
			<path id="bezier38" class="st28" d="M264.2,211c2.7,0,4.8-1.7,4.8-3.7c0-2.1-2.1-3.7-4.8-3.7c-2.6,0-4.8,1.7-4.8,3.7
				S261.6,211,264.2,211z"/>
		</g>
		<g>
			<defs>
				<circle id="SVGID_57_" cx="269" cy="16" r="141"/>
			</defs>
			<clipPath id="SVGID_58_">
				<use xlink:href="#SVGID_57_"  style="overflow:visible;"/>
			</clipPath>
			<path id="bezier39" class="st29" d="M274.9,211c2.7,0,4.8-1.7,4.8-3.7c0-2.1-2.1-3.7-4.8-3.7c-2.7,0-4.8,1.7-4.8,3.7
				S272.3,211,274.9,211z"/>
		</g>
		<g>
			<defs>
				<circle id="SVGID_59_" cx="269" cy="16" r="141"/>
			</defs>
			<clipPath id="SVGID_60_">
				<use xlink:href="#SVGID_59_"  style="overflow:visible;"/>
			</clipPath>
			<path id="bezier40" class="st30" d="M282.4,211c2.7,0,4.8-1.7,4.8-3.7c0-2.1-2.2-3.7-4.8-3.7c-2.7,0-4.8,1.7-4.8,3.7
				S279.7,211,282.4,211z"/>
		</g>
		<g>
			<defs>
				<circle id="SVGID_61_" cx="269" cy="16" r="141"/>
			</defs>
			<clipPath id="SVGID_62_">
				<use xlink:href="#SVGID_61_"  style="overflow:visible;"/>
			</clipPath>
			<path id="bezier41" class="st31" d="M289.9,211c2.7,0,4.8-1.7,4.8-3.7c0-2.1-2.2-3.7-4.8-3.7c-2.7,0-4.8,1.7-4.8,3.7
				S287.2,211,289.9,211z"/>
		</g>
		<g>
			<defs>
				<circle id="SVGID_63_" cx="269" cy="16" r="141"/>
			</defs>
			<clipPath id="SVGID_64_">
				<use xlink:href="#SVGID_63_"  style="overflow:visible;"/>
			</clipPath>
			<path id="bezier42" class="st32" d="M298.4,211c2.7,0,4.8-1.7,4.8-3.7c0-2.1-2.2-3.7-4.8-3.7c-2.7,0-4.8,1.7-4.8,3.7
				S295.8,211,298.4,211z"/>
		</g>
		<g>
			<defs>
				<circle id="SVGID_65_" cx="269" cy="16" r="141"/>
			</defs>
			<clipPath id="SVGID_66_">
				<use xlink:href="#SVGID_65_"  style="overflow:visible;"/>
			</clipPath>
			<path id="bezier43" class="st33" d="M305.9,211c2.7,0,4.8-1.7,4.8-3.7c0-2.1-2.1-3.7-4.8-3.7c-2.7,0-4.8,1.7-4.8,3.7
				S303.3,211,305.9,211z"/>
		</g>
		<g>
			<defs>
				<circle id="SVGID_67_" cx="269" cy="16" r="141"/>
			</defs>
			<clipPath id="SVGID_68_">
				<use xlink:href="#SVGID_67_"  style="overflow:visible;"/>
			</clipPath>
			<path id="bezier44" class="st34" d="M313.4,211c2.7,0,4.8-1.7,4.8-3.7c0-2.1-2.2-3.7-4.8-3.7c-2.7,0-4.8,1.7-4.8,3.7
				S310.7,211,313.4,211z"/>
		</g>
		<g>
			<defs>
				<circle id="SVGID_69_" cx="269" cy="16" r="141"/>
			</defs>
			<clipPath id="SVGID_70_">
				<use xlink:href="#SVGID_69_"  style="overflow:visible;"/>
			</clipPath>
			<path id="bezier45" class="st35" d="M321.9,211c2.7,0,4.8-1.7,4.8-3.7c0-2.1-2.2-3.7-4.8-3.7c-2.7,0-4.8,1.7-4.8,3.7
				S319.3,211,321.9,211z"/>
		</g>
		<g>
			<defs>
				<circle id="SVGID_71_" cx="269" cy="16" r="141"/>
			</defs>
			<clipPath id="SVGID_72_">
				<use xlink:href="#SVGID_71_"  style="overflow:visible;"/>
			</clipPath>
			<path id="bezier46" class="st36" d="M329.4,211c2.7,0,4.8-1.7,4.8-3.7c0-2.1-2.2-3.7-4.8-3.7c-2.7,0-4.8,1.7-4.8,3.7
				C324.6,209.3,326.8,211,329.4,211z"/>
		</g>
		<g>
			<defs>
				<circle id="SVGID_73_" cx="269" cy="16" r="141"/>
			</defs>
			<clipPath id="SVGID_74_">
				<use xlink:href="#SVGID_73_"  style="overflow:visible;"/>
			</clipPath>
			<path id="bezier47" class="st37" d="M336.9,211c2.7,0,4.8-1.7,4.8-3.7c0-2.1-2.1-3.7-4.8-3.7s-4.8,1.7-4.8,3.7
				C332.1,209.3,334.3,211,336.9,211z"/>
		</g>
		<g>
			<defs>
				<circle id="SVGID_75_" cx="269" cy="16" r="141"/>
			</defs>
			<clipPath id="SVGID_76_">
				<use xlink:href="#SVGID_75_"  style="overflow:visible;"/>
			</clipPath>
			<path id="bezier48" class="st38" d="M270.1,55c24.2,0,43.8-2.2,43.8-4.8c0-2.7-19.6-4.8-43.8-4.8c-24.2,0-43.8,2.1-43.8,4.8
				C226.3,52.9,245.9,55,270.1,55z"/>
		</g>
		<g>
			<defs>
				<circle id="SVGID_77_" cx="269" cy="16" r="141"/>
			</defs>
			<clipPath id="SVGID_78_">
				<use xlink:href="#SVGID_77_"  style="overflow:visible;"/>
			</clipPath>
			<path id="bezier49" class="st39" d="M233.8,192.8c-20.1,0-36.3,6.7-36.3,15h72.7C270.1,199.5,253.8,192.8,233.8,192.8
				L233.8,192.8z"/>
		</g>
		<g>
			<defs>
				<circle id="SVGID_79_" cx="269" cy="16" r="141"/>
			</defs>
			<clipPath id="SVGID_80_">
				<use xlink:href="#SVGID_79_"  style="overflow:visible;"/>
			</clipPath>
			<path id="bezier50" class="st40" d="M306.4,192.8c-20.1,0-36.3,6.7-36.3,15h72.7C342.8,199.5,326.5,192.8,306.4,192.8
				L306.4,192.8z"/>
		</g>
		<g>
			<defs>
				<circle id="SVGID_81_" cx="269" cy="16" r="141"/>
			</defs>
			<clipPath id="SVGID_82_">
				<use xlink:href="#SVGID_81_"  style="overflow:visible;"/>
			</clipPath>
			<path id="bezier51" class="st41" d="M197.9,144c-2.1-2.9-4.9-4.4-6.3-3.4c-1.5,1-0.9,4.2,1.1,7.1c2.1,2.9,4.9,4.4,6.3,3.4
				C200.4,150,199.9,146.9,197.9,144z"/>
		</g>
		<g>
			<defs>
				<circle id="SVGID_83_" cx="269" cy="16" r="141"/>
			</defs>
			<clipPath id="SVGID_84_">
				<use xlink:href="#SVGID_83_"  style="overflow:visible;"/>
			</clipPath>
			<path id="bezier52" class="st42" d="M301.1,74.8c0,6.8-13.4,12.3-29.9,12.3s-29.9-5.5-29.9-12.3s13.4-12.3,29.9-12.3
				S301.1,68,301.1,74.8L301.1,74.8z"/>
		</g>
		<g>
			<defs>
				<circle id="SVGID_85_" cx="269" cy="16" r="141"/>
			</defs>
			<clipPath id="SVGID_86_">
				<use xlink:href="#SVGID_85_"  style="overflow:visible;"/>
			</clipPath>
			<path id="bezier53" class="st43" d="M238,59.3v15h65.2v-15H238z"/>
		</g>
	</g>
</g>
<g>
	<path class="st44" d="M258.2,146.7c0,0.8-0.3,1.4-1,2c-0.6,0.5-1.4,0.7-2.2,0.7c-0.7,0-1.4-0.2-2-0.6c-0.7-0.4-1.1-1.1-1.4-1.9
		c-0.1-0.2-0.3-1.1-0.7-2.7c-0.4-1.5-0.8-2.6-1.1-3.4c-0.4-1.1-0.8-1.7-1-1.6c-0.2,0-0.3,0.1-0.4,0.2c-0.1,0.1-0.1,0.2-0.1,0.4v9.4
		h-2.8v-10c0-0.9,0.3-1.6,1-2.1c0.6-0.4,1.4-0.6,2.3-0.6c1.2,0,2.2,0.6,3,1.9c0.5,0.8,1,2.2,1.4,4c0.5,2.1,0.9,3.3,1.1,3.8
		c0.1,0.3,0.3,0.4,0.6,0.4c0.1,0,0.3-0.1,0.4-0.2c0.1-0.1,0.1-0.3,0.1-0.5v-9.4h2.8V146.7z"/>
	<path class="st44" d="M271.7,149.2h-3l-3.3-9.6c0-0.1-0.1-0.2-0.2-0.2c-0.1,0-0.2,0.1-0.3,0.2l-3.2,9.6h-3c0.2-0.6,0.5-1.8,1.1-3.5
		c0.6-1.8,1.1-3.4,1.6-5c0.6-1.8,1-2.7,1.1-2.9c0.2-0.3,0.6-0.6,1.1-0.8c0.5-0.2,1-0.3,1.5-0.3c0.6,0,1.1,0.1,1.5,0.3
		s0.8,0.5,1.1,0.8c0.2,0.2,0.5,1.2,1.1,2.9c0.4,1.1,0.9,2.7,1.6,5C271,147,271.4,148.2,271.7,149.2z"/>
	<path class="st44" d="M282.9,139.3h-6.7c-0.3,0-0.5,0.1-0.7,0.3c-0.2,0.2-0.3,0.5-0.3,0.8c0,0.3,0.1,0.6,0.3,0.8
		c0.2,0.2,0.4,0.3,0.7,0.3h3.9c1.1,0,1.9,0.4,2.5,1.2c0.6,0.7,0.8,1.6,0.8,2.6c0,1-0.3,1.9-0.8,2.6c-0.6,0.8-1.5,1.2-2.5,1.2H273
		v-2.7h6.7c0.3,0,0.5-0.1,0.7-0.4c0.2-0.2,0.2-0.5,0.2-0.8s-0.1-0.6-0.2-0.8c-0.2-0.2-0.4-0.3-0.7-0.3h-3.9c-1.1,0-1.9-0.4-2.5-1.2
		c-0.6-0.7-0.8-1.6-0.8-2.6c0-1,0.3-1.9,0.8-2.6c0.6-0.8,1.5-1.2,2.5-1.2h7.1V139.3z"/>
	<path class="st44" d="M296.4,149.2h-3l-3.3-9.6c0-0.1-0.1-0.2-0.2-0.2c-0.1,0-0.2,0.1-0.3,0.2l-3.2,9.6h-3c0.2-0.6,0.5-1.8,1.1-3.5
		c0.6-1.8,1.1-3.4,1.6-5c0.6-1.8,1-2.7,1.1-2.9c0.2-0.3,0.6-0.6,1.1-0.8s1-0.3,1.5-0.3s1.1,0.1,1.5,0.3c0.5,0.2,0.8,0.5,1.1,0.8
		c0.2,0.2,0.5,1.2,1.1,2.9c0.4,1.1,0.9,2.7,1.6,5C295.7,147,296.1,148.2,296.4,149.2z"/>
</g>
</svg>
